# xmcd
#
# Track frame offsets:
#	150
#	12431
#	24862
#	36710
#	49718
#	60651
#	70601
#	83912
#	97194
#	109842
#	122693
#	133849
#	146628
#	159226
#	172076
#	184133
#	196078
#	207471
#	221941
#	235166
#	249647
#	259475
#	273902
#	287130
#	299449
#
# Disc length: 4153 seconds
#
# Revision: 1
# Processed by: cddbd v1.5.1PL2 Copyright (c) Steve Scherf et al.
# Submitted via: audiograbber 1.83.01
#
DISCID=8a103719
DTITLE=Various Artist - The R&B Years 1948 Disk £
DYEAR=1900
DGENRE=R&B
TTITLE0=Albert Ammons - Tuxedo Boogie
TTITLE1=Joe Morris - Lowe Groovin'
TTITLE2=Ivory Joe Hunter - Pretty Mama Blues
TTITLE3=Mabel Smith - Too Tight Mama
TTITLE4=Jimmy Witherspoon - Geneva Blues
TTITLE5=Camille Howard - You Don't Love Me
TTITLE6=Bull Moose Jackson - Fare Thee Well, Deacon Jones, Fare Thee Well
TTITLE7=Dinah Washington - West Side Baby
TTITLE8=The Ravens - Send for Me if You Need Me
TTITLE9=Louis Jordan - All for the Love of Lil
TTITLE10=Hadda Brooks - Variety Bounce
TTITLE11=Little Miss Cornshucks - Cornshuck's Blues
TTITLE12=Wynonie Harris - Lollipop Mama
TTITLE13=Lionel Hampton - Gone again
TTITLE14=Jim Wynn - Fat Meat
TTITLE15=Bill Moore - We're Gonna Rock, We're Gonna Roll
TTITLE16=Mabel Scott - Elevator Boogie
TTITLE17=731 - Drippers Boogie
TTITLE18=Louis Jordan - Pinetop's Boogie
TTITLE19=Chicago All Stars - Are You Getting Married Brother?
TTITLE20=Sonny Thompson - Creeping  (Late freight)
TTITLE21=Albennie Jones - Get It Up Daddy Blues
TTITLE22=Hal Singer - Corn Bread
TTITLE23=Louis Jordan - Don't Burn the Candle at both ends
TTITLE24=Cecil Gant - Hogan's Alley
EXTD=
EXTT0=
EXTT1=
EXTT2=
EXTT3=
EXTT4=
EXTT5=
EXTT6=
EXTT7=
EXTT8=
EXTT9=
EXTT10=
EXTT11=
EXTT12=
EXTT13=
EXTT14=
EXTT15=
EXTT16=
EXTT17=
EXTT18=
EXTT19=
EXTT20=
EXTT21=
EXTT22=
EXTT23=
EXTT24=
PLAYORDER=
